name p11_grf_mean_speed_1.2
datacolumns 13
datarows 68
range 0.0000000000 0.6700000000
endheader
time	grf_x_l_mean	grf_x_l_var	grf_y_l_mean	grf_y_l_var	grf_z_l_mean	grf_z_l_var	grf_x_r_mean	grf_x_r_var	grf_y_r_mean	grf_y_r_var	grf_z_r_mean	grf_z_r_var
0.0000000000	156.7860470437	1.0000000000	926.1903379073	1.0000000000	0.0000000000	0.0000000000	11.4733962258	1.0000000000	11.0748562138	1.0000000000	0.0000000000	0.0000000000
0.0100000000	168.6171852880	1.0000000000	918.0868180820	1.0000000000	0.0000000000	0.0000000000	20.1893753386	1.0000000000	52.6360311443	1.0000000000	0.0000000000	0.0000000000
0.0200000000	179.9492293305	1.0000000000	899.8991062813	1.0000000000	0.0000000000	0.0000000000	23.7668393625	1.0000000000	122.2983209986	1.0000000000	0.0000000000	0.0000000000
0.0300000000	189.4270916709	1.0000000000	869.1347409237	1.0000000000	0.0000000000	0.0000000000	10.6602981432	1.0000000000	206.8946916211	1.0000000000	0.0000000000	0.0000000000
0.0400000000	194.8837012026	1.0000000000	822.2970487266	1.0000000000	0.0000000000	0.0000000000	-20.3418426249	1.0000000000	285.0357271648	1.0000000000	0.0000000000	0.0000000000
0.0500000000	195.4699917715	1.0000000000	757.7669853372	1.0000000000	0.0000000000	0.0000000000	-53.4915933373	1.0000000000	353.4568464344	1.0000000000	0.0000000000	0.0000000000
0.0600000000	190.7247002975	1.0000000000	677.1258959929	1.0000000000	0.0000000000	0.0000000000	-79.7928266348	1.0000000000	418.5451326486	1.0000000000	0.0000000000	0.0000000000
0.0700000000	177.7979878219	1.0000000000	580.2175919693	1.0000000000	0.0000000000	0.0000000000	-102.3283030175	1.0000000000	480.9178376680	1.0000000000	0.0000000000	0.0000000000
0.0800000000	155.2353552979	1.0000000000	471.6747156618	1.0000000000	0.0000000000	0.0000000000	-122.2183780037	1.0000000000	543.4873231349	1.0000000000	0.0000000000	0.0000000000
0.0900000000	125.0505387326	1.0000000000	363.2353167171	1.0000000000	0.0000000000	0.0000000000	-137.9966208155	1.0000000000	608.6815891232	1.0000000000	0.0000000000	0.0000000000
0.1000000000	90.6446394492	1.0000000000	262.5906307162	1.0000000000	0.0000000000	0.0000000000	-149.1831690920	1.0000000000	671.8129450177	1.0000000000	0.0000000000	0.0000000000
0.1100000000	58.2315512557	1.0000000000	177.2914642397	1.0000000000	0.0000000000	0.0000000000	-154.9852447151	1.0000000000	731.1783832333	1.0000000000	0.0000000000	0.0000000000
0.1200000000	33.3019879485	1.0000000000	113.6367439094	1.0000000000	0.0000000000	0.0000000000	-156.6426078183	1.0000000000	786.3178053394	1.0000000000	0.0000000000	0.0000000000
0.1300000000	16.6336900705	1.0000000000	68.8436647112	1.0000000000	0.0000000000	0.0000000000	-154.1802867473	1.0000000000	831.2925687468	1.0000000000	0.0000000000	0.0000000000
0.1400000000	6.3256911486	1.0000000000	39.5251725089	1.0000000000	0.0000000000	0.0000000000	-148.0197479766	1.0000000000	863.2401467280	1.0000000000	0.0000000000	0.0000000000
0.1500000000	1.4924767441	1.0000000000	23.1369774422	1.0000000000	0.0000000000	0.0000000000	-139.8226497474	1.0000000000	884.0498262325	1.0000000000	0.0000000000	0.0000000000
0.1600000000	-0.5654575194	1.0000000000	13.1396040674	1.0000000000	0.0000000000	0.0000000000	-130.0570663323	1.0000000000	893.3423425051	1.0000000000	0.0000000000	0.0000000000
0.1700000000	-1.5989311739	1.0000000000	6.8303705602	1.0000000000	0.0000000000	0.0000000000	-119.2968810702	1.0000000000	891.8770277767	1.0000000000	0.0000000000	0.0000000000
0.1800000000	-1.3793993612	1.0000000000	3.8739647101	1.0000000000	0.0000000000	0.0000000000	-108.2669867356	1.0000000000	882.5294373736	1.0000000000	0.0000000000	0.0000000000
0.1900000000	-1.0824800298	1.0000000000	2.5267338518	1.0000000000	0.0000000000	0.0000000000	-97.0273465629	1.0000000000	866.3508099699	1.0000000000	0.0000000000	0.0000000000
0.2000000000	-0.7060077114	1.0000000000	2.1724797084	1.0000000000	0.0000000000	0.0000000000	-86.4737580578	1.0000000000	845.1377313562	1.0000000000	0.0000000000	0.0000000000
0.2100000000	-0.3046880239	1.0000000000	2.3735184628	1.0000000000	0.0000000000	0.0000000000	-76.5879440054	1.0000000000	820.5592206188	1.0000000000	0.0000000000	0.0000000000
0.2200000000	-0.4574736639	1.0000000000	2.1921458311	1.0000000000	0.0000000000	0.0000000000	-67.1746893748	1.0000000000	793.4976001318	1.0000000000	0.0000000000	0.0000000000
0.2300000000	-0.4034040859	1.0000000000	2.2311895410	1.0000000000	0.0000000000	0.0000000000	-59.0296002821	1.0000000000	767.3365942891	1.0000000000	0.0000000000	0.0000000000
0.2400000000	-0.3134218463	1.0000000000	2.4638163801	1.0000000000	0.0000000000	0.0000000000	-51.5614236373	1.0000000000	744.0280506471	1.0000000000	0.0000000000	0.0000000000
0.2500000000	-0.3710132312	1.0000000000	2.1512072383	1.0000000000	0.0000000000	0.0000000000	-44.4122931512	1.0000000000	723.2225008941	1.0000000000	0.0000000000	0.0000000000
0.2600000000	-0.3008365370	1.0000000000	2.0079570765	1.0000000000	0.0000000000	0.0000000000	-38.1338488271	1.0000000000	707.1699377838	1.0000000000	0.0000000000	0.0000000000
0.2700000000	-0.2261800345	1.0000000000	2.0356553048	1.0000000000	0.0000000000	0.0000000000	-32.2270920228	1.0000000000	696.6772909232	1.0000000000	0.0000000000	0.0000000000
0.2800000000	-0.1733149116	1.0000000000	1.7996047905	1.0000000000	0.0000000000	0.0000000000	-26.5097150626	1.0000000000	689.4115066958	1.0000000000	0.0000000000	0.0000000000
0.2900000000	-0.1181905863	1.0000000000	1.7406533942	1.0000000000	0.0000000000	0.0000000000	-21.2175479641	1.0000000000	686.0966160898	1.0000000000	0.0000000000	0.0000000000
0.3000000000	-0.0811453436	1.0000000000	1.7358625586	1.0000000000	0.0000000000	0.0000000000	-16.0353527354	1.0000000000	687.9589082332	1.0000000000	0.0000000000	0.0000000000
0.3100000000	-0.0752351767	1.0000000000	1.5896502869	1.0000000000	0.0000000000	0.0000000000	-11.1839684792	1.0000000000	693.3389826942	1.0000000000	0.0000000000	0.0000000000
0.3200000000	-0.1283986214	1.0000000000	1.5271564745	1.0000000000	0.0000000000	0.0000000000	-6.2699080606	1.0000000000	701.5032598609	1.0000000000	0.0000000000	0.0000000000
0.3300000000	-0.1884615514	1.0000000000	1.4594271459	1.0000000000	0.0000000000	0.0000000000	-1.0917912924	1.0000000000	712.1230866488	1.0000000000	0.0000000000	0.0000000000
0.3400000000	-0.2513942819	1.0000000000	1.4360751037	1.0000000000	0.0000000000	0.0000000000	3.9656396586	1.0000000000	724.4075481100	1.0000000000	0.0000000000	0.0000000000
0.3500000000	-0.3140036823	1.0000000000	1.5861129130	1.0000000000	0.0000000000	0.0000000000	9.4240613386	1.0000000000	737.5643833356	1.0000000000	0.0000000000	0.0000000000
0.3600000000	-0.3241630210	1.0000000000	1.5673308479	1.0000000000	0.0000000000	0.0000000000	15.3190778850	1.0000000000	749.9761241339	1.0000000000	0.0000000000	0.0000000000
0.3700000000	-0.2812701347	1.0000000000	1.4466151330	1.0000000000	0.0000000000	0.0000000000	21.4563089788	1.0000000000	761.6943195436	1.0000000000	0.0000000000	0.0000000000
0.3800000000	-0.2098555114	1.0000000000	1.5313980555	1.0000000000	0.0000000000	0.0000000000	28.3820755029	1.0000000000	773.8234469262	1.0000000000	0.0000000000	0.0000000000
0.3900000000	-0.1520483994	1.0000000000	1.5697333945	1.0000000000	0.0000000000	0.0000000000	36.1190892027	1.0000000000	785.5706844375	1.0000000000	0.0000000000	0.0000000000
0.4000000000	-0.1054698716	1.0000000000	1.5613520418	1.0000000000	0.0000000000	0.0000000000	44.9623012859	1.0000000000	797.1497234521	1.0000000000	0.0000000000	0.0000000000
0.4100000000	-0.0779007055	1.0000000000	1.6952926793	1.0000000000	0.0000000000	0.0000000000	54.9357128827	1.0000000000	810.4470808946	1.0000000000	0.0000000000	0.0000000000
0.4200000000	-0.1157594661	1.0000000000	1.7191618786	1.0000000000	0.0000000000	0.0000000000	65.5366348071	1.0000000000	825.3897886968	1.0000000000	0.0000000000	0.0000000000
0.4300000000	-0.2456441718	1.0000000000	1.3468217119	1.0000000000	0.0000000000	0.0000000000	76.7786425948	1.0000000000	840.8697384108	1.0000000000	0.0000000000	0.0000000000
0.4400000000	-0.4643510550	1.0000000000	0.2296484796	1.0000000000	0.0000000000	0.0000000000	88.2311930618	1.0000000000	856.4743869486	1.0000000000	0.0000000000	0.0000000000
0.4500000000	0.0000000000	1.0000000000	0.0000000000	1.0000000000	0.0000000000	0.0000000000	99.5167374930	1.0000000000	871.4618503130	1.0000000000	0.0000000000	0.0000000000
0.4600000000	0.0000000000	1.0000000000	0.0000000000	1.0000000000	0.0000000000	0.0000000000	110.8894189296	1.0000000000	884.5127411991	1.0000000000	0.0000000000	0.0000000000
0.4700000000	0.0000000000	1.0000000000	0.0000000000	1.0000000000	0.0000000000	0.0000000000	122.3996316908	1.0000000000	894.0831397460	1.0000000000	0.0000000000	0.0000000000
0.4800000000	0.0000000000	1.0000000000	0.0000000000	1.0000000000	0.0000000000	0.0000000000	134.3022350264	1.0000000000	899.0375362948	1.0000000000	0.0000000000	0.0000000000
0.4900000000	8.5169966520	1.0000000000	13.1589536232	1.0000000000	0.0000000000	0.0000000000	146.6113298958	1.0000000000	898.5952158816	1.0000000000	0.0000000000	0.0000000000
0.5000000000	14.3177994733	1.0000000000	54.0859368755	1.0000000000	0.0000000000	0.0000000000	158.9651354707	1.0000000000	891.0684801571	1.0000000000	0.0000000000	0.0000000000
0.5100000000	15.8519845114	1.0000000000	122.3911311660	1.0000000000	0.0000000000	0.0000000000	171.0803157855	1.0000000000	874.4100172691	1.0000000000	0.0000000000	0.0000000000
0.5200000000	4.6708047127	1.0000000000	206.5863616670	1.0000000000	0.0000000000	0.0000000000	181.6493101601	1.0000000000	846.8592159317	1.0000000000	0.0000000000	0.0000000000
0.5300000000	-21.4155486885	1.0000000000	284.7193901019	1.0000000000	0.0000000000	0.0000000000	188.9181165991	1.0000000000	805.6354117134	1.0000000000	0.0000000000	0.0000000000
0.5400000000	-52.5958162553	1.0000000000	347.7841060751	1.0000000000	0.0000000000	0.0000000000	192.2222414761	1.0000000000	748.6512883413	1.0000000000	0.0000000000	0.0000000000
0.5500000000	-80.7057668195	1.0000000000	404.0130365434	1.0000000000	0.0000000000	0.0000000000	190.3970719711	1.0000000000	676.4916283114	1.0000000000	0.0000000000	0.0000000000
0.5600000000	-106.9080159107	1.0000000000	462.2782951029	1.0000000000	0.0000000000	0.0000000000	180.9204940213	1.0000000000	588.9398855781	1.0000000000	0.0000000000	0.0000000000
0.5700000000	-131.9717183868	1.0000000000	528.7636221611	1.0000000000	0.0000000000	0.0000000000	162.4647339567	1.0000000000	488.4475105291	1.0000000000	0.0000000000	0.0000000000
0.5800000000	-153.1782074437	1.0000000000	605.1435443760	1.0000000000	0.0000000000	0.0000000000	135.2648081262	1.0000000000	383.8973535428	1.0000000000	0.0000000000	0.0000000000
0.5900000000	-168.0697398470	1.0000000000	685.2424049436	1.0000000000	0.0000000000	0.0000000000	102.1610026536	1.0000000000	283.0132825294	1.0000000000	0.0000000000	0.0000000000
0.6000000000	-175.5629816795	1.0000000000	761.0975032880	1.0000000000	0.0000000000	0.0000000000	69.3424515052	1.0000000000	193.1833454519	1.0000000000	0.0000000000	0.0000000000
0.6100000000	-176.0888654611	1.0000000000	825.6214034900	1.0000000000	0.0000000000	0.0000000000	41.9992582925	1.0000000000	122.5934399740	1.0000000000	0.0000000000	0.0000000000
0.6200000000	-170.5559190557	1.0000000000	873.3040041557	1.0000000000	0.0000000000	0.0000000000	21.7692304115	1.0000000000	72.3264680534	1.0000000000	0.0000000000	0.0000000000
0.6300000000	-161.0050399848	1.0000000000	904.1481252007	1.0000000000	0.0000000000	0.0000000000	8.4750783915	1.0000000000	39.3731629643	1.0000000000	0.0000000000	0.0000000000
0.6400000000	-149.6756272752	1.0000000000	920.9427272100	1.0000000000	0.0000000000	0.0000000000	1.4038055344	1.0000000000	20.2716756688	1.0000000000	0.0000000000	0.0000000000
0.6500000000	-137.4210043035	1.0000000000	925.3972114747	1.0000000000	0.0000000000	0.0000000000	-1.3753199295	1.0000000000	9.4215324026	1.0000000000	0.0000000000	0.0000000000
0.6600000000	-124.9149552091	1.0000000000	920.2805553534	1.0000000000	0.0000000000	0.0000000000	-1.8714222141	1.0000000000	3.3023191121	1.0000000000	0.0000000000	0.0000000000
0.6700000000	-112.4095072522	1.0000000000	907.3443817985	1.0000000000	0.0000000000	0.0000000000	-1.1479789069	1.0000000000	0.8144556982	1.0000000000	0.0000000000	0.0000000000
